HIERARCHY
ROOT Hips
{
	OFFSET 0.000000 0.000000 0.000000
	CHANNELS 6 Xposition Yposition Zposition Xrotation Yrotation Zrotation
	JOINT LeftUpLeg_virtual
	{
		OFFSET 0.000000 0.000000 0.000000
		CHANNELS 3 Xrotation Yrotation Zrotation
		JOINT LeftUpLeg
		{
			OFFSET 13.026900 -6.336304 -1.092800
			CHANNELS 3 Xrotation Yrotation Zrotation
			JOINT LeftLeg
			{
				OFFSET 0.524474 -46.096886 9.782700
				CHANNELS 3 Xrotation Yrotation Zrotation
				JOINT LeftFoot
				{
					OFFSET -0.524474 -53.427422 -12.948200
					CHANNELS 3 Xrotation Yrotation Zrotation
					JOINT LeftToeBase
					{
						OFFSET 0.192200 -14.009700 16.364100
						CHANNELS 3 Xrotation Yrotation Zrotation
						JOINT LeftToe_End
						{
							OFFSET -1.784700 -0.561700 9.474800
							CHANNELS 3 Xrotation Yrotation Zrotation
							End Site
							{
								OFFSET 0 0 0
							}
						}
					}
				}
			}
		}
	}
	JOINT RightUpLeg_virtual
	{
		OFFSET 0.000000 0.000000 0.000000
		CHANNELS 3 Xrotation Yrotation Zrotation
		JOINT RightUpLeg
		{
			OFFSET -12.883000 -6.336304 -1.092800
			CHANNELS 3 Xrotation Yrotation Zrotation
			JOINT RightLeg
			{
				OFFSET -0.524587 -46.096825 9.782800
				CHANNELS 3 Xrotation Yrotation Zrotation
				JOINT RightFoot
				{
					OFFSET 0.524587 -53.427383 -12.948300
					CHANNELS 3 Xrotation Yrotation Zrotation
					JOINT RightToeBase
					{
						OFFSET -0.192200 -14.009700 16.364100
						CHANNELS 3 Xrotation Yrotation Zrotation
						JOINT RightToe_End
						{
							OFFSET 1.784700 -0.561700 9.474800
							CHANNELS 3 Xrotation Yrotation Zrotation
							End Site
							{
								OFFSET 0 0 0
							}
						}
					}
				}
			}
		}
	}
	JOINT Spine_virtual
	{
		OFFSET 0.000000 0.000000 0.000000
		CHANNELS 3 Xrotation Yrotation Zrotation
		JOINT Spine
		{
			OFFSET 0.072000 7.257294 -0.789700
			CHANNELS 3 Xrotation Yrotation Zrotation
			JOINT Spine1
			{
				OFFSET 0.000000 12.508769 -0.658067
				CHANNELS 3 Xrotation Yrotation Zrotation
				JOINT Spine1_split
				{
					OFFSET 0.000000 12.508769 -0.658067
					CHANNELS 3 Xrotation Yrotation Zrotation
					JOINT Spine2
					{
						OFFSET 0.000000 12.508769 -0.658067
						CHANNELS 3 Xrotation Yrotation Zrotation
						JOINT Neck_virtual
						{
							OFFSET 0.000000 0.000000 0.000000
							CHANNELS 3 Xrotation Yrotation Zrotation
							JOINT Neck
							{
								OFFSET 0.000000 14.033295 7.520400
								CHANNELS 3 Xrotation Yrotation Zrotation
								JOINT Head
								{
									OFFSET 0.000000 8.198502 5.703100
									CHANNELS 3 Xrotation Yrotation Zrotation
									JOINT HeadTop_End
									{
										OFFSET 0.000000 17.760803 13.332701
										CHANNELS 3 Xrotation Yrotation Zrotation
										End Site
										{
											OFFSET 0 0 0
										}
									}
								}
							}
						}
						JOINT LeftShoulder_virtual
						{
							OFFSET 0.000000 0.000000 0.000000
							CHANNELS 3 Xrotation Yrotation Zrotation
							JOINT LeftShoulder
							{
								OFFSET 6.292450 5.785301 -0.669000
								CHANNELS 3 Xrotation Yrotation Zrotation
								JOINT LeftShoulder_split
								{
									OFFSET 6.292450 5.785301 -0.669000
									CHANNELS 3 Xrotation Yrotation Zrotation
									JOINT LeftArm
									{
										OFFSET 13.907140 -6.093903 1.965100
										CHANNELS 3 Xrotation Yrotation Zrotation
										JOINT LeftForeArm
										{
											OFFSET 34.140198 0.000000 0.000000
											CHANNELS 3 Xrotation Yrotation Zrotation
											JOINT LeftHand
											{
												OFFSET 40.960209 0.000000 0.000000
												CHANNELS 3 Xrotation Yrotation Zrotation
												End Site
												{
													OFFSET 0 0 0
												}
											}
										}
									}
								}
							}
						}
						JOINT RightShoulder_virtual
						{
							OFFSET 0.000000 0.000000 0.000000
							CHANNELS 3 Xrotation Yrotation Zrotation
							JOINT RightShoulder
							{
								OFFSET -6.292450 5.785301 -0.669000
								CHANNELS 3 Xrotation Yrotation Zrotation
								JOINT RightShoulder_split
								{
									OFFSET -6.292450 5.785301 -0.669000
									CHANNELS 3 Xrotation Yrotation Zrotation
									JOINT RightArm
									{
										OFFSET -13.907140 -6.093903 1.965100
										CHANNELS 3 Xrotation Yrotation Zrotation
										JOINT RightForeArm
										{
											OFFSET -34.140198 0.000000 0.000000
											CHANNELS 3 Xrotation Yrotation Zrotation
											JOINT RightHand
											{
												OFFSET -40.960209 0.000000 0.000000
												CHANNELS 3 Xrotation Yrotation Zrotation
												End Site
												{
													OFFSET 0 0 0
												}
											}
										}
									}
								}
							}
						}
					}
				}
			}
		}
	}
}
MOTION
Frames: 9
Frame Time: 0.03333333
-5.763065 107.205063 57.482018 0.000000 0.000000 0.000000 29.071915 4.161223 -17.101795 -69.472012 -2.819300 14.633945 33.398877 9.515394 -5.861741 5.729064 0.728042 6.602358 -0.206839 -0.000019 0.000000 0.000000 0.000000 0.000000 29.071915 4.161223 -17.101795 -9.896194 -21.296865 -21.518279 76.382388 -3.062654 -3.170772 30.983145 1.512146 4.712927 -0.000009 0.000006 -0.000005 0.000000 0.000000 0.000000 29.071915 4.161223 -17.101795 6.351454 14.003503 -9.182461 11.648222 11.205352 -7.545689 0.000000 0.000000 0.000000 0.000000 0.000000 0.000000 11.698389 11.155155 -7.567856 -9.883405 -7.149088 7.463519 -30.256321 -33.917661 18.385671 0.000000 0.000000 0.000000 11.698389 11.155155 -7.567856 -0.266290 3.848962 2.890079 0.000000 0.000000 0.000000 28.180076 -44.869828 -18.300114 0.000006 -24.379739 -0.000008 0.000000 0.000000 0.000000 11.698389 11.155155 -7.567856 4.952153 16.802288 -7.381374 0.000000 0.000000 0.000000 -6.598553 60.118219 21.651657 -0.000006 37.609112 0.000002 0.000000 0.000000 0.000000 
-6.004055 106.814804 58.637009 0.000000 0.000000 0.000000 27.482154 5.588661 -16.768816 -68.293750 -1.522020 14.347789 34.954979 7.794000 -5.710529 4.463647 0.724643 6.610532 -0.218901 -0.000010 -0.000000 0.000000 0.000000 0.000000 27.482154 5.588661 -16.768816 -12.089014 -21.192719 -20.093074 73.066727 -1.700280 -3.582601 30.928271 1.065262 2.983747 0.000016 -0.000004 0.000004 0.000000 0.000000 0.000000 27.482154 5.588661 -16.768816 6.360231 12.176784 -9.882608 11.743708 10.656885 -7.606250 0.000000 0.000000 0.000000 0.000000 0.000000 0.000000 11.859999 10.534739 -7.618945 -10.124068 -6.973868 7.156024 -30.258776 -33.172473 18.493002 0.000000 0.000000 0.000000 11.859999 10.534739 -7.618945 -0.246501 3.605297 3.561315 0.000000 0.000000 0.000000 28.114730 -48.438872 -10.572318 0.000003 -21.961913 -0.000000 0.000000 0.000000 0.000000 11.859999 10.534739 -7.618945 4.570565 15.669531 -6.602644 0.000000 0.000000 0.000000 -6.422769 55.485889 16.577468 -0.000021 34.357573 0.000044 0.000000 0.000000 0.000000 
-6.074131 106.596390 59.848450 0.000000 0.000000 0.000000 25.821626 6.966717 -16.477008 -66.864342 0.074183 14.023650 36.186571 5.900365 -5.247260 3.228065 0.701489 6.696028 -0.229843 0.000012 -0.000001 0.000000 0.000000 0.000000 25.821626 6.966717 -16.477008 -14.195286 -20.744393 -18.767973 69.448687 -0.774305 -4.374591 30.556907 0.897386 2.466875 0.000004 -0.000009 -0.000003 0.000000 0.000000 0.000000 25.821626 6.966717 -16.477008 6.436262 10.226541 -10.584769 12.021818 9.741559 -7.730871 0.000000 0.000000 0.000000 0.000000 0.000000 0.000000 12.202118 9.561376 -7.685887 -10.392274 -6.743336 6.915856 -30.125277 -32.065139 18.818932 0.000000 0.000000 0.000000 12.202118 9.561376 -7.685887 -0.221352 3.342400 4.318550 0.000000 0.000000 0.000000 24.076410 -51.955951 -5.803406 0.000003 -19.112199 0.000010 0.000000 0.000000 0.000000 12.202118 9.561376 -7.685887 4.269296 14.317943 -6.742139 0.000000 0.000000 0.000000 -7.185981 51.966654 12.264377 0.000013 31.452820 -0.000005 0.000000 0.000000 0.000000 
-5.761700 106.515198 61.193340 0.000000 0.000000 0.000000 23.969237 8.251826 -16.123317 -64.936582 1.515375 13.539277 37.339258 4.479060 -4.629363 1.814117 0.641570 6.769117 -0.235198 0.000005 0.000001 0.000000 0.000000 0.000000 23.969237 8.251826 -16.123317 -16.159784 -20.269889 -17.828935 65.349495 0.495701 -5.068310 29.464610 0.459529 0.525707 0.000000 -0.000003 0.000004 0.000000 0.000000 0.000000 23.969237 8.251826 -16.123317 6.564844 8.136284 -11.177781 12.485681 8.293027 -7.856392 0.000000 0.000000 0.000000 0.000000 0.000000 0.000000 12.725218 8.079470 -7.691575 -10.634241 -6.399411 6.712312 -29.551514 -30.333533 19.557405 0.000000 0.000000 0.000000 12.725218 8.079470 -7.691575 -0.170771 3.027221 5.120389 0.000000 0.000000 0.000000 16.174718 -54.878360 -4.109489 -0.000002 -16.222524 -0.000009 0.000000 0.000000 0.000000 12.725218 8.079470 -7.691575 4.077273 13.192562 -7.620849 0.000000 0.000000 0.000000 -8.728078 49.548050 8.555928 0.000001 29.088355 0.000002 0.000000 0.000000 0.000000 
-5.001583 106.559616 62.699215 0.000000 0.000000 0.000000 21.819079 9.182998 -15.952231 -62.463999 2.311977 13.309095 38.620628 3.907897 -4.146045 0.072424 0.548873 6.797859 -0.229653 0.000002 -0.000002 0.000000 0.000000 0.000000 21.819079 9.182998 -15.952231 -18.008180 -20.523709 -17.392619 60.701626 2.814151 -5.567903 27.469004 -0.193529 -2.916466 0.000006 -0.000005 -0.000003 0.000000 0.000000 0.000000 21.819079 9.182998 -15.952231 6.714531 5.980484 -11.549495 13.055926 6.293582 -7.904343 0.000000 0.000000 0.000000 0.000000 0.000000 0.000000 13.347410 6.075216 -7.565088 -10.841217 -5.905781 6.480939 -28.415516 -27.813319 20.654012 0.000000 0.000000 0.000000 13.347410 6.075216 -7.565088 -0.092119 2.702615 5.828620 0.000000 0.000000 0.000000 6.000705 -56.642055 -4.742941 0.000001 -14.045325 0.000005 0.000000 0.000000 0.000000 13.347410 6.075216 -7.565088 3.997518 12.510324 -8.958965 0.000000 0.000000 0.000000 -10.425293 48.134167 5.005152 -0.000006 27.233605 0.000005 0.000000 0.000000 0.000000 
-3.982956 106.824013 64.221664 0.000000 0.000000 0.000000 19.546395 9.545248 -16.227134 -59.715374 2.638504 13.766986 39.731180 3.879671 -3.864964 -1.763556 0.449159 6.831513 -0.213961 -0.000007 0.000000 0.000000 0.000000 0.000000 19.546395 9.545248 -16.227134 -20.124565 -21.984960 -17.388699 55.613705 5.969309 -6.273769 25.019324 -0.324811 -3.961192 0.000006 -0.000002 -0.000002 0.000000 0.000000 0.000000 19.546395 9.545248 -16.227134 6.846226 3.863349 -11.647154 13.598751 3.889499 -7.802522 0.000000 0.000000 0.000000 0.000000 0.000000 0.000000 13.933250 3.691158 -7.263320 -11.042124 -5.260854 6.154312 -26.836810 -24.526728 21.862939 0.000000 0.000000 0.000000 13.933250 3.691158 -7.263320 -0.010108 2.467384 6.291530 0.000000 0.000000 0.000000 -4.516992 -57.349998 -6.544394 0.000002 -12.909941 0.000001 0.000000 0.000000 0.000000 13.933250 3.691158 -7.263320 4.014308 12.203267 -10.530851 0.000000 0.000000 0.000000 -11.929116 47.475559 1.373790 0.000023 25.955366 -0.000027 0.000000 0.000000 0.000000 
-2.967377 107.316551 65.515938 0.000000 0.000000 0.000000 17.520612 9.257105 -16.881250 -57.251667 3.201954 14.938534 40.329491 3.741095 -3.599306 -3.324140 0.358089 6.953485 -0.197122 0.000007 0.000002 0.000000 0.000000 0.000000 17.520612 9.257105 -16.881250 -22.990700 -24.156033 -17.743460 50.363691 8.787464 -7.308320 22.740381 0.888750 0.670350 -0.000000 0.000003 0.000003 0.000000 0.000000 0.000000 17.520612 9.257105 -16.881250 6.916600 1.918773 -11.427765 13.977940 1.342835 -7.511207 0.000000 0.000000 0.000000 0.000000 0.000000 0.000000 14.346541 1.180230 -6.787095 -11.280668 -4.500153 5.694503 -25.107818 -20.711265 22.910538 0.000000 0.000000 0.000000 14.346541 1.180230 -6.787095 0.040079 2.391976 6.536604 0.000000 0.000000 0.000000 -14.161375 -57.684513 -8.797927 0.000004 -12.434960 0.000015 0.000000 0.000000 0.000000 14.346541 1.180230 -6.787095 4.090237 12.091623 -12.180254 0.000000 0.000000 0.000000 -14.671895 47.314974 -0.949934 -0.000001 25.550189 0.000023 0.000000 0.000000 0.000000 
-2.059845 107.874718 66.426254 0.000000 0.000000 0.000000 15.905180 8.368618 -17.594818 -55.474530 4.369209 16.466135 40.512191 3.390498 -3.166777 -4.492060 0.165578 7.132363 -0.116864 0.000003 -0.000001 0.000000 0.000000 0.000000 15.905180 8.368618 -17.594818 -26.511456 -25.732519 -18.431549 44.894321 8.932661 -7.877290 20.774854 4.850376 8.263194 0.000005 0.000006 -0.000002 0.000000 0.000000 0.000000 15.905180 8.368618 -17.594818 6.896788 0.257534 -10.881530 14.108362 -1.059708 -7.041008 0.000000 0.000000 0.000000 0.000000 0.000000 0.000000 14.503106 -1.181698 -6.182904 -11.593086 -3.686048 5.108044 -23.563101 -16.758108 23.649829 0.000000 0.000000 0.000000 14.503106 -1.181698 -6.182904 0.035648 2.471875 6.864428 0.000000 0.000000 0.000000 -22.723239 -58.249711 -11.598604 -0.000006 -12.128700 -0.000020 0.000000 0.000000 0.000000 14.503106 -1.181698 -6.182904 4.176804 12.023210 -13.752174 0.000000 0.000000 0.000000 -21.900061 47.563037 1.421920 -0.000001 26.176543 0.000003 0.000000 0.000000 0.000000 
-1.014854 108.687065 67.036606 0.000000 0.000000 0.000000 14.594982 7.042170 -18.429949 -53.948106 5.874157 18.144348 39.992776 2.935070 -2.716041 -5.260245 -0.001564 7.441523 -0.117512 -0.000009 0.000002 0.000000 0.000000 0.000000 14.594982 7.042170 -18.429949 -29.896759 -26.479247 -18.399020 39.088534 9.096203 -7.228014 19.062783 7.927620 13.177415 -0.000006 -0.000003 -0.000001 0.000000 0.000000 0.000000 14.594982 7.042170 -18.429949 6.784845 -1.044050 -9.950687 13.982719 -3.099346 -6.447816 0.000000 0.000000 0.000000 0.000000 0.000000 0.000000 14.394829 -3.185542 -5.524733 -11.995674 -2.888712 4.438311 -22.464420 -13.082077 24.109552 0.000000 0.000000 0.000000 14.394829 -3.185542 -5.524733 -0.033478 2.663423 7.675229 0.000000 0.000000 0.000000 -30.726210 -59.063043 -15.555372 0.000017 -12.051158 0.000024 0.000000 0.000000 0.000000 14.394829 -3.185542 -5.524733 4.223869 11.892718 -15.062179 0.000000 0.000000 0.000000 -35.962442 47.082181 11.257241 -0.000002 27.425361 0.000004 0.000000 0.000000 0.000000 
